<svg width="929" height="175" viewBox="0 0 929 175" fill="none" xmlns="http://www.w3.org/2000/svg">
<path d="M110.307 171C157.527 171 195.807 132.72 195.807 85.5C195.807 38.2797 157.527 0 110.307 0C63.0868 0 24.8071 38.2797 24.8071 85.5C24.8071 132.72 63.0868 171 110.307 171Z" fill="#2E993E"/>
<path fill-rule="evenodd" clip-rule="evenodd" d="M201.866 82.1366C204.669 76.7295 205.548 71.4714 204.156 66.6369C198.157 45.7948 152.23 40.7193 101.576 55.3004C50.9216 69.8816 14.7219 98.5978 20.7214 119.44C22.113 124.274 25.6527 128.26 30.9012 131.349C21.449 127.21 15.0162 121.184 12.789 113.447C5.72626 88.9112 43.6306 56.462 97.4507 40.9695C151.271 25.4771 200.626 32.808 207.689 57.3437C209.916 65.081 207.671 73.6053 201.866 82.1366Z" fill="white"/>
<path fill-rule="evenodd" clip-rule="evenodd" d="M208.825 108.986C211.628 103.579 212.507 98.3208 211.115 93.4865C205.116 72.6444 159.189 67.5689 108.535 82.15C57.8807 96.7311 21.6809 125.447 27.6805 146.289C29.0721 151.124 32.612 155.11 37.8607 158.199C28.4082 154.06 21.9752 148.034 19.748 140.296C12.6852 115.761 50.5896 83.3116 104.409 67.8192C158.23 52.3267 207.585 59.6576 214.648 84.1933C216.875 91.9305 214.63 100.455 208.825 108.986Z" fill="white"/>
<path d="M290.528 153.012C290.528 154.314 290.349 155.494 289.99 156.552C289.632 157.609 289.131 158.544 288.489 159.355C287.866 160.167 287.111 160.866 286.224 161.451C285.355 162.036 284.392 162.518 283.335 162.896C282.278 163.273 281.145 163.556 279.937 163.745C278.747 163.915 277.416 164 275.943 164H266.201C265.578 164 265.049 163.821 264.615 163.462C264.2 163.084 263.992 162.48 263.992 161.649V129.704C263.992 128.873 264.2 128.279 264.615 127.92C265.049 127.542 265.578 127.354 266.201 127.354H275.405C277.652 127.354 279.549 127.542 281.098 127.92C282.665 128.298 283.977 128.873 285.034 129.647C286.11 130.403 286.932 131.366 287.498 132.536C288.064 133.707 288.348 135.085 288.348 136.671C288.348 137.558 288.234 138.398 288.008 139.191C287.781 139.965 287.451 140.674 287.017 141.315C286.582 141.957 286.044 142.524 285.402 143.015C284.779 143.506 284.062 143.902 283.25 144.204C284.288 144.393 285.242 144.723 286.11 145.195C286.998 145.667 287.762 146.281 288.404 147.036C289.065 147.772 289.584 148.641 289.962 149.642C290.34 150.642 290.528 151.766 290.528 153.012ZM280.899 137.577C280.899 136.841 280.786 136.18 280.56 135.595C280.333 135.009 279.993 134.528 279.54 134.15C279.087 133.754 278.511 133.452 277.812 133.244C277.133 133.036 276.217 132.933 275.065 132.933H271.299V142.448H275.462C276.538 142.448 277.397 142.326 278.039 142.08C278.681 141.816 279.21 141.466 279.625 141.032C280.059 140.579 280.38 140.06 280.588 139.475C280.796 138.87 280.899 138.238 280.899 137.577ZM282.797 153.267C282.797 152.417 282.655 151.662 282.372 151.001C282.089 150.321 281.674 149.755 281.126 149.302C280.578 148.849 279.88 148.499 279.03 148.254C278.181 148.008 277.076 147.886 275.717 147.886H271.299V158.308H276.68C277.718 158.308 278.587 158.204 279.285 157.996C280.003 157.77 280.616 157.449 281.126 157.033C281.655 156.599 282.061 156.07 282.344 155.447C282.646 154.805 282.797 154.078 282.797 153.267Z" fill="#2E993E"/>
<path d="M320.526 163.037C320.526 163.226 320.479 163.396 320.385 163.547C320.29 163.679 320.12 163.792 319.875 163.887C319.648 163.981 319.337 164.047 318.94 164.085C318.563 164.142 318.081 164.17 317.496 164.17C316.873 164.17 316.363 164.142 315.967 164.085C315.589 164.047 315.287 163.981 315.061 163.887C314.834 163.792 314.674 163.679 314.579 163.547C314.485 163.396 314.438 163.226 314.438 163.037V160.12C313.04 161.631 311.615 162.763 310.161 163.519C308.726 164.274 307.235 164.651 305.687 164.651C303.95 164.651 302.486 164.368 301.297 163.802C300.126 163.235 299.173 162.461 298.437 161.479C297.719 160.498 297.2 159.365 296.879 158.081C296.577 156.778 296.426 155.164 296.426 153.238V137.775C296.426 137.587 296.473 137.426 296.567 137.294C296.681 137.143 296.869 137.02 297.134 136.926C297.417 136.831 297.785 136.765 298.238 136.728C298.71 136.671 299.286 136.643 299.966 136.643C300.664 136.643 301.24 136.671 301.693 136.728C302.146 136.765 302.505 136.831 302.77 136.926C303.053 137.02 303.251 137.143 303.364 137.294C303.478 137.426 303.534 137.587 303.534 137.775V152.049C303.534 153.37 303.619 154.381 303.789 155.079C303.959 155.778 304.214 156.382 304.554 156.892C304.912 157.382 305.356 157.77 305.885 158.053C306.432 158.317 307.065 158.449 307.782 158.449C308.688 158.449 309.595 158.119 310.501 157.458C311.426 156.797 312.408 155.834 313.446 154.569V137.775C313.446 137.587 313.493 137.426 313.588 137.294C313.701 137.143 313.89 137.02 314.154 136.926C314.438 136.831 314.806 136.765 315.259 136.728C315.712 136.671 316.288 136.643 316.986 136.643C317.685 136.643 318.261 136.671 318.714 136.728C319.167 136.765 319.526 136.831 319.79 136.926C320.054 137.02 320.243 137.143 320.356 137.294C320.47 137.426 320.526 137.587 320.526 137.775V163.037Z" fill="#2E993E"/>
<path d="M335.704 163.037C335.704 163.226 335.647 163.396 335.534 163.547C335.421 163.679 335.223 163.792 334.939 163.887C334.675 163.981 334.316 164.047 333.863 164.085C333.41 164.142 332.834 164.17 332.136 164.17C331.437 164.17 330.861 164.142 330.408 164.085C329.955 164.047 329.587 163.981 329.304 163.887C329.039 163.792 328.851 163.679 328.737 163.547C328.624 163.396 328.567 163.226 328.567 163.037V137.832C328.567 137.643 328.624 137.483 328.737 137.351C328.851 137.2 329.039 137.077 329.304 136.982C329.587 136.869 329.955 136.784 330.408 136.728C330.861 136.671 331.437 136.643 332.136 136.643C332.834 136.643 333.41 136.671 333.863 136.728C334.316 136.784 334.675 136.869 334.939 136.982C335.223 137.077 335.421 137.2 335.534 137.351C335.647 137.483 335.704 137.643 335.704 137.832V163.037ZM336.242 129.223C336.242 130.658 335.95 131.649 335.364 132.196C334.779 132.744 333.693 133.018 332.107 133.018C330.503 133.018 329.417 132.753 328.851 132.225C328.303 131.696 328.029 130.743 328.029 129.364C328.029 127.929 328.312 126.938 328.879 126.391C329.464 125.824 330.559 125.541 332.164 125.541C333.75 125.541 334.826 125.815 335.393 126.362C335.959 126.891 336.242 127.844 336.242 129.223Z" fill="#2E993E"/>
<path d="M396.704 163.037C396.704 163.226 396.647 163.396 396.534 163.547C396.421 163.679 396.223 163.792 395.939 163.887C395.675 163.981 395.316 164.047 394.863 164.085C394.41 164.142 393.834 164.17 393.136 164.17C392.437 164.17 391.861 164.142 391.408 164.085C390.955 164.047 390.587 163.981 390.304 163.887C390.039 163.792 389.851 163.679 389.737 163.547C389.624 163.396 389.567 163.226 389.567 163.037V137.832C389.567 137.643 389.624 137.483 389.737 137.351C389.851 137.2 390.039 137.077 390.304 136.982C390.587 136.869 390.955 136.784 391.408 136.728C391.861 136.671 392.437 136.643 393.136 136.643C393.834 136.643 394.41 136.671 394.863 136.728C395.316 136.784 395.675 136.869 395.939 136.982C396.223 137.077 396.421 137.2 396.534 137.351C396.647 137.483 396.704 137.643 396.704 137.832V163.037ZM397.242 129.223C397.242 130.658 396.95 131.649 396.364 132.196C395.779 132.744 394.693 133.018 393.107 133.018C391.503 133.018 390.417 132.753 389.851 132.225C389.303 131.696 389.029 130.743 389.029 129.364C389.029 127.929 389.312 126.938 389.879 126.391C390.464 125.824 391.559 125.541 393.164 125.541C394.75 125.541 395.826 125.815 396.393 126.362C396.959 126.891 397.242 127.844 397.242 129.223Z" fill="#2E993E"/>
<path d="M350.703 163.037C350.703 163.226 350.646 163.396 350.533 163.547C350.42 163.679 350.222 163.792 349.938 163.887C349.674 163.981 349.315 164.047 348.862 164.085C348.409 164.142 347.833 164.17 347.135 164.17C346.436 164.17 345.86 164.142 345.407 164.085C344.954 164.047 344.586 163.981 344.303 163.887C344.038 163.792 343.85 163.679 343.736 163.547C343.623 163.396 343.566 163.226 343.566 163.037V125.796C343.566 125.607 343.623 125.437 343.736 125.286C343.85 125.135 344.038 125.012 344.303 124.918C344.586 124.805 344.954 124.72 345.407 124.663C345.86 124.606 346.436 124.578 347.135 124.578C347.833 124.578 348.409 124.606 348.862 124.663C349.315 124.72 349.674 124.805 349.938 124.918C350.222 125.012 350.42 125.135 350.533 125.286C350.646 125.437 350.703 125.607 350.703 125.796V163.037Z" fill="#2E993E"/>
<path d="M382.526 163.037C382.526 163.245 382.479 163.424 382.385 163.575C382.29 163.707 382.13 163.821 381.903 163.915C381.677 164.009 381.365 164.076 380.969 164.113C380.591 164.151 380.119 164.17 379.553 164.17C378.949 164.17 378.458 164.151 378.08 164.113C377.702 164.076 377.391 164.009 377.146 163.915C376.919 163.821 376.749 163.707 376.636 163.575C376.541 163.424 376.494 163.245 376.494 163.037V160.233C375.191 161.631 373.823 162.716 372.388 163.49C370.972 164.264 369.395 164.651 367.658 164.651C365.732 164.651 364.099 164.283 362.759 163.547C361.437 162.792 360.352 161.782 359.502 160.517C358.671 159.252 358.067 157.779 357.689 156.099C357.312 154.399 357.123 152.615 357.123 150.746C357.123 148.499 357.359 146.479 357.831 144.686C358.322 142.892 359.03 141.363 359.955 140.098C360.88 138.833 362.032 137.86 363.41 137.181C364.788 136.501 366.374 136.161 368.168 136.161C369.584 136.161 370.868 136.454 372.02 137.039C373.171 137.605 374.313 138.446 375.446 139.56V125.881C375.446 125.692 375.493 125.522 375.588 125.371C375.701 125.22 375.89 125.097 376.154 125.003C376.438 124.89 376.806 124.805 377.259 124.748C377.712 124.691 378.288 124.663 378.986 124.663C379.685 124.663 380.261 124.691 380.714 124.748C381.167 124.805 381.526 124.89 381.79 125.003C382.054 125.097 382.243 125.22 382.356 125.371C382.47 125.522 382.526 125.692 382.526 125.881V163.037ZM375.446 146.158C374.427 144.874 373.445 143.893 372.501 143.213C371.576 142.533 370.604 142.193 369.584 142.193C368.659 142.193 367.856 142.429 367.177 142.901C366.516 143.354 365.978 143.968 365.562 144.742C365.166 145.516 364.864 146.385 364.656 147.348C364.467 148.292 364.373 149.264 364.373 150.265C364.373 151.322 364.458 152.351 364.628 153.352C364.798 154.352 365.072 155.249 365.449 156.042C365.846 156.816 366.365 157.439 367.007 157.911C367.649 158.383 368.461 158.619 369.442 158.619C369.933 158.619 370.405 158.553 370.858 158.421C371.33 158.27 371.802 158.034 372.274 157.713C372.765 157.392 373.266 156.977 373.775 156.467C374.285 155.938 374.842 155.296 375.446 154.541V146.158Z" fill="#2E993E"/>
<path d="M428.695 163.037C428.695 163.226 428.639 163.396 428.525 163.547C428.412 163.679 428.223 163.792 427.959 163.887C427.695 163.981 427.326 164.047 426.854 164.085C426.401 164.142 425.835 164.17 425.155 164.17C424.457 164.17 423.871 164.142 423.399 164.085C422.946 164.047 422.588 163.981 422.323 163.887C422.059 163.792 421.87 163.679 421.757 163.547C421.644 163.396 421.587 163.226 421.587 163.037V148.622C421.587 147.395 421.493 146.432 421.304 145.733C421.134 145.035 420.879 144.44 420.539 143.949C420.199 143.439 419.756 143.052 419.208 142.788C418.679 142.505 418.056 142.363 417.339 142.363C416.433 142.363 415.517 142.694 414.592 143.354C413.667 144.015 412.704 144.978 411.703 146.243V163.037C411.703 163.226 411.646 163.396 411.533 163.547C411.42 163.679 411.222 163.792 410.938 163.887C410.674 163.981 410.315 164.047 409.862 164.085C409.409 164.142 408.833 164.17 408.135 164.17C407.436 164.17 406.86 164.142 406.407 164.085C405.954 164.047 405.586 163.981 405.303 163.887C405.038 163.792 404.85 163.679 404.736 163.547C404.623 163.396 404.566 163.226 404.566 163.037V137.775C404.566 137.587 404.614 137.426 404.708 137.294C404.802 137.143 404.972 137.02 405.218 136.926C405.463 136.831 405.775 136.765 406.152 136.728C406.549 136.671 407.04 136.643 407.625 136.643C408.229 136.643 408.729 136.671 409.126 136.728C409.522 136.765 409.825 136.831 410.032 136.926C410.259 137.02 410.419 137.143 410.514 137.294C410.608 137.426 410.655 137.587 410.655 137.775V140.692C412.052 139.182 413.468 138.049 414.903 137.294C416.357 136.539 417.868 136.161 419.435 136.161C421.153 136.161 422.597 136.444 423.768 137.011C424.957 137.577 425.91 138.351 426.628 139.333C427.364 140.296 427.893 141.429 428.214 142.731C428.535 144.034 428.695 145.601 428.695 147.433V163.037Z" fill="#2E993E"/>
<path d="M459.337 139.531C459.337 140.438 459.233 141.108 459.025 141.542C458.818 141.976 458.563 142.193 458.261 142.193H455.287C455.702 142.646 455.995 143.166 456.165 143.751C456.354 144.317 456.448 144.912 456.448 145.535C456.448 147.008 456.203 148.32 455.712 149.472C455.221 150.604 454.513 151.567 453.588 152.36C452.682 153.134 451.577 153.729 450.274 154.145C448.991 154.541 447.556 154.739 445.97 154.739C445.158 154.739 444.384 154.645 443.647 154.456C442.911 154.248 442.345 154.012 441.948 153.748C441.722 153.993 441.514 154.286 441.325 154.626C441.155 154.966 441.07 155.343 441.07 155.759C441.07 156.306 441.306 156.759 441.778 157.118C442.269 157.458 442.949 157.647 443.817 157.685L449.963 157.911C451.398 157.968 452.672 158.175 453.786 158.534C454.919 158.874 455.863 159.365 456.618 160.007C457.392 160.63 457.978 161.385 458.374 162.272C458.789 163.16 458.997 164.17 458.997 165.303C458.997 166.549 458.723 167.719 458.176 168.814C457.628 169.928 456.807 170.891 455.712 171.703C454.617 172.515 453.239 173.157 451.577 173.629C449.935 174.101 448.009 174.337 445.8 174.337C443.647 174.337 441.807 174.167 440.277 173.827C438.767 173.487 437.521 173.015 436.539 172.411C435.576 171.807 434.868 171.08 434.415 170.23C433.981 169.4 433.764 168.484 433.764 167.483C433.764 166.86 433.839 166.266 433.99 165.699C434.16 165.133 434.396 164.585 434.698 164.057C435.019 163.547 435.406 163.056 435.859 162.584C436.312 162.112 436.832 161.659 437.417 161.225C436.605 160.79 435.973 160.205 435.52 159.469C435.085 158.714 434.868 157.892 434.868 157.005C434.868 155.891 435.123 154.881 435.633 153.975C436.143 153.049 436.803 152.219 437.615 151.482C436.954 150.822 436.426 150.029 436.029 149.104C435.633 148.178 435.435 147.027 435.435 145.648C435.435 144.176 435.689 142.864 436.199 141.712C436.728 140.541 437.455 139.56 438.38 138.767C439.305 137.955 440.41 137.341 441.693 136.926C442.977 136.492 444.393 136.274 445.941 136.274C446.734 136.274 447.49 136.322 448.207 136.416C448.943 136.51 449.623 136.643 450.246 136.812H458.261C458.582 136.812 458.837 137.02 459.025 137.436C459.233 137.851 459.337 138.549 459.337 139.531ZM450.189 145.507C450.189 144.147 449.812 143.09 449.057 142.335C448.301 141.58 447.235 141.202 445.856 141.202C445.158 141.202 444.544 141.325 444.016 141.57C443.487 141.797 443.043 142.118 442.685 142.533C442.345 142.93 442.09 143.402 441.92 143.949C441.75 144.478 441.665 145.035 441.665 145.62C441.665 146.904 442.043 147.924 442.798 148.679C443.553 149.415 444.601 149.783 445.941 149.783C446.659 149.783 447.282 149.67 447.811 149.443C448.339 149.217 448.773 148.905 449.113 148.509C449.472 148.112 449.736 147.659 449.906 147.149C450.095 146.621 450.189 146.073 450.189 145.507ZM451.86 165.671C451.86 164.821 451.521 164.17 450.841 163.717C450.161 163.264 449.227 163.018 448.037 162.98L442.968 162.839C442.477 163.198 442.08 163.547 441.778 163.887C441.495 164.208 441.259 164.519 441.07 164.821C440.9 165.123 440.787 165.416 440.73 165.699C440.674 165.982 440.646 166.275 440.646 166.577C440.646 167.521 441.118 168.239 442.062 168.729C443.024 169.22 444.374 169.466 446.111 169.466C447.188 169.466 448.094 169.353 448.83 169.126C449.566 168.918 450.161 168.635 450.614 168.276C451.067 167.918 451.388 167.512 451.577 167.059C451.766 166.624 451.86 166.162 451.86 165.671Z" fill="#2E993E"/>
<path d="M505.528 153.012C505.528 154.314 505.349 155.494 504.99 156.552C504.632 157.609 504.131 158.544 503.489 159.355C502.866 160.167 502.111 160.866 501.224 161.451C500.355 162.036 499.392 162.518 498.335 162.896C497.278 163.273 496.145 163.556 494.937 163.745C493.747 163.915 492.416 164 490.943 164H481.201C480.578 164 480.049 163.821 479.615 163.462C479.2 163.084 478.992 162.48 478.992 161.649V129.704C478.992 128.873 479.2 128.279 479.615 127.92C480.049 127.542 480.578 127.354 481.201 127.354H490.405C492.652 127.354 494.549 127.542 496.098 127.92C497.665 128.298 498.977 128.873 500.034 129.647C501.11 130.403 501.932 131.366 502.498 132.536C503.064 133.707 503.348 135.085 503.348 136.671C503.348 137.558 503.234 138.398 503.008 139.191C502.781 139.965 502.451 140.674 502.017 141.315C501.582 141.957 501.044 142.524 500.402 143.015C499.779 143.506 499.062 143.902 498.25 144.204C499.288 144.393 500.242 144.723 501.11 145.195C501.998 145.667 502.762 146.281 503.404 147.036C504.065 147.772 504.584 148.641 504.962 149.642C505.34 150.642 505.528 151.766 505.528 153.012ZM495.899 137.577C495.899 136.841 495.786 136.18 495.56 135.595C495.333 135.009 494.993 134.528 494.54 134.15C494.087 133.754 493.511 133.452 492.812 133.244C492.133 133.036 491.217 132.933 490.065 132.933H486.299V142.448H490.462C491.538 142.448 492.397 142.326 493.039 142.08C493.681 141.816 494.21 141.466 494.625 141.032C495.059 140.579 495.38 140.06 495.588 139.475C495.796 138.87 495.899 138.238 495.899 137.577ZM497.797 153.267C497.797 152.417 497.655 151.662 497.372 151.001C497.089 150.321 496.674 149.755 496.126 149.302C495.578 148.849 494.88 148.499 494.03 148.254C493.181 148.008 492.076 147.886 490.717 147.886H486.299V158.308H491.68C492.718 158.308 493.587 158.204 494.285 157.996C495.003 157.77 495.616 157.449 496.126 157.033C496.655 156.599 497.061 156.07 497.344 155.447C497.646 154.805 497.797 154.078 497.797 153.267Z" fill="#2E993E"/>
<path d="M535.526 163.037C535.526 163.226 535.479 163.396 535.385 163.547C535.29 163.679 535.12 163.792 534.875 163.887C534.648 163.981 534.337 164.047 533.94 164.085C533.563 164.142 533.081 164.17 532.496 164.17C531.873 164.17 531.363 164.142 530.967 164.085C530.589 164.047 530.287 163.981 530.061 163.887C529.834 163.792 529.674 163.679 529.579 163.547C529.485 163.396 529.438 163.226 529.438 163.037V160.12C528.04 161.631 526.615 162.763 525.161 163.519C523.726 164.274 522.235 164.651 520.687 164.651C518.95 164.651 517.486 164.368 516.297 163.802C515.126 163.235 514.173 162.461 513.437 161.479C512.719 160.498 512.2 159.365 511.879 158.081C511.577 156.778 511.426 155.164 511.426 153.238V137.775C511.426 137.587 511.473 137.426 511.567 137.294C511.681 137.143 511.869 137.02 512.134 136.926C512.417 136.831 512.785 136.765 513.238 136.728C513.71 136.671 514.286 136.643 514.966 136.643C515.664 136.643 516.24 136.671 516.693 136.728C517.146 136.765 517.505 136.831 517.77 136.926C518.053 137.02 518.251 137.143 518.364 137.294C518.478 137.426 518.534 137.587 518.534 137.775V152.049C518.534 153.37 518.619 154.381 518.789 155.079C518.959 155.778 519.214 156.382 519.554 156.892C519.912 157.382 520.356 157.77 520.885 158.053C521.432 158.317 522.065 158.449 522.782 158.449C523.688 158.449 524.595 158.119 525.501 157.458C526.426 156.797 527.408 155.834 528.446 154.569V137.775C528.446 137.587 528.493 137.426 528.588 137.294C528.701 137.143 528.89 137.02 529.154 136.926C529.438 136.831 529.806 136.765 530.259 136.728C530.712 136.671 531.288 136.643 531.986 136.643C532.685 136.643 533.261 136.671 533.714 136.728C534.167 136.765 534.526 136.831 534.79 136.926C535.054 137.02 535.243 137.143 535.356 137.294C535.47 137.426 535.526 137.587 535.526 137.775V163.037Z" fill="#2E993E"/>
<path d="M561.353 155.9C561.353 157.335 561.079 158.6 560.531 159.695C560.003 160.79 559.247 161.706 558.266 162.442C557.284 163.179 556.123 163.726 554.782 164.085C553.442 164.463 551.988 164.651 550.421 164.651C549.477 164.651 548.571 164.576 547.702 164.425C546.853 164.293 546.088 164.123 545.408 163.915C544.729 163.688 544.162 163.462 543.709 163.235C543.256 163.009 542.925 162.801 542.718 162.612C542.51 162.405 542.35 162.093 542.236 161.678C542.123 161.243 542.066 160.611 542.066 159.78C542.066 159.233 542.085 158.799 542.123 158.478C542.161 158.138 542.217 157.873 542.293 157.685C542.368 157.477 542.463 157.345 542.576 157.288C542.689 157.213 542.831 157.175 543.001 157.175C543.209 157.175 543.511 157.298 543.907 157.543C544.323 157.77 544.832 158.024 545.437 158.308C546.041 158.591 546.739 158.855 547.532 159.101C548.344 159.346 549.26 159.469 550.279 159.469C550.921 159.469 551.488 159.403 551.979 159.271C552.488 159.138 552.923 158.95 553.281 158.704C553.659 158.459 553.942 158.147 554.131 157.77C554.32 157.392 554.414 156.958 554.414 156.467C554.414 155.9 554.235 155.419 553.876 155.022C553.536 154.607 553.074 154.248 552.488 153.946C551.922 153.644 551.271 153.361 550.534 153.097C549.817 152.832 549.071 152.54 548.297 152.219C547.542 151.898 546.796 151.53 546.06 151.114C545.342 150.699 544.691 150.189 544.105 149.585C543.539 148.981 543.076 148.254 542.718 147.404C542.378 146.555 542.208 145.535 542.208 144.346C542.208 143.137 542.444 142.033 542.916 141.032C543.388 140.013 544.068 139.144 544.955 138.427C545.842 137.709 546.919 137.152 548.184 136.756C549.467 136.359 550.902 136.161 552.488 136.161C553.281 136.161 554.046 136.218 554.782 136.331C555.537 136.444 556.217 136.586 556.821 136.756C557.425 136.926 557.935 137.115 558.351 137.322C558.766 137.511 559.059 137.681 559.229 137.832C559.417 137.964 559.549 138.106 559.625 138.257C559.701 138.389 559.757 138.559 559.795 138.767C559.833 138.955 559.861 139.201 559.88 139.503C559.918 139.786 559.937 140.145 559.937 140.579C559.937 141.089 559.918 141.504 559.88 141.825C559.861 142.146 559.814 142.401 559.738 142.59C559.682 142.779 559.597 142.911 559.483 142.986C559.37 143.043 559.238 143.071 559.087 143.071C558.917 143.071 558.653 142.977 558.294 142.788C557.935 142.58 557.482 142.363 556.935 142.137C556.406 141.91 555.783 141.702 555.065 141.514C554.367 141.306 553.564 141.202 552.658 141.202C552.016 141.202 551.459 141.268 550.987 141.4C550.515 141.533 550.128 141.721 549.826 141.967C549.524 142.212 549.298 142.505 549.146 142.845C548.995 143.166 548.92 143.515 548.92 143.893C548.92 144.478 549.099 144.969 549.458 145.365C549.817 145.762 550.289 146.111 550.874 146.413C551.459 146.715 552.12 146.998 552.856 147.263C553.612 147.527 554.367 147.82 555.122 148.141C555.896 148.443 556.651 148.801 557.388 149.217C558.143 149.632 558.813 150.142 559.398 150.746C559.984 151.35 560.456 152.077 560.814 152.927C561.173 153.757 561.353 154.749 561.353 155.9Z" fill="#2E993E"/>
<path d="M574.704 163.037C574.704 163.226 574.647 163.396 574.534 163.547C574.421 163.679 574.223 163.792 573.939 163.887C573.675 163.981 573.316 164.047 572.863 164.085C572.41 164.142 571.834 164.17 571.136 164.17C570.437 164.17 569.861 164.142 569.408 164.085C568.955 164.047 568.587 163.981 568.304 163.887C568.039 163.792 567.851 163.679 567.737 163.547C567.624 163.396 567.567 163.226 567.567 163.037V137.832C567.567 137.643 567.624 137.483 567.737 137.351C567.851 137.2 568.039 137.077 568.304 136.982C568.587 136.869 568.955 136.784 569.408 136.728C569.861 136.671 570.437 136.643 571.136 136.643C571.834 136.643 572.41 136.671 572.863 136.728C573.316 136.784 573.675 136.869 573.939 136.982C574.223 137.077 574.421 137.2 574.534 137.351C574.647 137.483 574.704 137.643 574.704 137.832V163.037ZM575.242 129.223C575.242 130.658 574.95 131.649 574.364 132.196C573.779 132.744 572.693 133.018 571.107 133.018C569.503 133.018 568.417 132.753 567.851 132.225C567.303 131.696 567.029 130.743 567.029 129.364C567.029 127.929 567.312 126.938 567.879 126.391C568.464 125.824 569.559 125.541 571.164 125.541C572.75 125.541 573.826 125.815 574.393 126.362C574.959 126.891 575.242 127.844 575.242 129.223Z" fill="#2E993E"/>
<path d="M605.695 163.037C605.695 163.226 605.639 163.396 605.525 163.547C605.412 163.679 605.223 163.792 604.959 163.887C604.695 163.981 604.326 164.047 603.854 164.085C603.401 164.142 602.835 164.17 602.155 164.17C601.457 164.17 600.871 164.142 600.399 164.085C599.946 164.047 599.588 163.981 599.323 163.887C599.059 163.792 598.87 163.679 598.757 163.547C598.644 163.396 598.587 163.226 598.587 163.037V148.622C598.587 147.395 598.493 146.432 598.304 145.733C598.134 145.035 597.879 144.44 597.539 143.949C597.199 143.439 596.756 143.052 596.208 142.788C595.679 142.505 595.056 142.363 594.339 142.363C593.433 142.363 592.517 142.694 591.592 143.354C590.667 144.015 589.704 144.978 588.703 146.243V163.037C588.703 163.226 588.646 163.396 588.533 163.547C588.42 163.679 588.222 163.792 587.938 163.887C587.674 163.981 587.315 164.047 586.862 164.085C586.409 164.142 585.833 164.17 585.135 164.17C584.436 164.17 583.86 164.142 583.407 164.085C582.954 164.047 582.586 163.981 582.303 163.887C582.038 163.792 581.85 163.679 581.736 163.547C581.623 163.396 581.566 163.226 581.566 163.037V137.775C581.566 137.587 581.614 137.426 581.708 137.294C581.802 137.143 581.972 137.02 582.218 136.926C582.463 136.831 582.775 136.765 583.152 136.728C583.549 136.671 584.04 136.643 584.625 136.643C585.229 136.643 585.729 136.671 586.126 136.728C586.522 136.765 586.825 136.831 587.032 136.926C587.259 137.02 587.419 137.143 587.514 137.294C587.608 137.426 587.655 137.587 587.655 137.775V140.692C589.052 139.182 590.468 138.049 591.903 137.294C593.357 136.539 594.868 136.161 596.435 136.161C598.153 136.161 599.597 136.444 600.768 137.011C601.957 137.577 602.91 138.351 603.628 139.333C604.364 140.296 604.893 141.429 605.214 142.731C605.535 144.034 605.695 145.601 605.695 147.433V163.037Z" fill="#2E993E"/>
<path d="M636.902 149.67C636.902 150.538 636.704 151.18 636.308 151.596C635.93 152.011 635.401 152.219 634.722 152.219H619.344C619.344 153.295 619.466 154.277 619.712 155.164C619.976 156.033 620.382 156.778 620.93 157.401C621.496 158.006 622.214 158.468 623.082 158.789C623.969 159.11 625.027 159.271 626.254 159.271C627.5 159.271 628.595 159.186 629.539 159.016C630.483 158.827 631.295 158.629 631.975 158.421C632.673 158.194 633.249 157.996 633.702 157.826C634.155 157.637 634.523 157.543 634.807 157.543C634.977 157.543 635.118 157.581 635.231 157.656C635.345 157.713 635.439 157.826 635.515 157.996C635.59 158.166 635.637 158.411 635.656 158.732C635.694 159.035 635.713 159.422 635.713 159.894C635.713 160.309 635.703 160.668 635.685 160.97C635.666 161.253 635.637 161.498 635.6 161.706C635.562 161.914 635.505 162.093 635.43 162.244C635.354 162.376 635.25 162.508 635.118 162.641C635.005 162.773 634.674 162.952 634.127 163.179C633.579 163.405 632.881 163.632 632.031 163.858C631.182 164.066 630.209 164.245 629.114 164.396C628.019 164.566 626.849 164.651 625.603 164.651C623.356 164.651 621.383 164.368 619.684 163.802C618.003 163.235 616.597 162.376 615.464 161.225C614.331 160.073 613.481 158.619 612.915 156.863C612.368 155.107 612.094 153.049 612.094 150.689C612.094 148.443 612.386 146.423 612.972 144.629C613.557 142.816 614.407 141.287 615.521 140.041C616.634 138.776 617.984 137.813 619.57 137.152C621.175 136.492 622.978 136.161 624.979 136.161C627.094 136.161 628.897 136.473 630.389 137.096C631.899 137.719 633.136 138.587 634.099 139.701C635.062 140.796 635.77 142.099 636.223 143.609C636.676 145.12 636.902 146.762 636.902 148.537V149.67ZM629.992 147.631C630.049 145.63 629.643 144.062 628.774 142.93C627.925 141.778 626.603 141.202 624.81 141.202C623.903 141.202 623.11 141.372 622.431 141.712C621.77 142.052 621.213 142.514 620.76 143.1C620.326 143.666 619.986 144.346 619.74 145.139C619.514 145.913 619.382 146.743 619.344 147.631H629.992Z" fill="#2E993E"/>
<path d="M661.353 155.9C661.353 157.335 661.079 158.6 660.531 159.695C660.003 160.79 659.247 161.706 658.266 162.442C657.284 163.179 656.123 163.726 654.782 164.085C653.442 164.463 651.988 164.651 650.421 164.651C649.477 164.651 648.571 164.576 647.702 164.425C646.853 164.293 646.088 164.123 645.408 163.915C644.729 163.688 644.162 163.462 643.709 163.235C643.256 163.009 642.925 162.801 642.718 162.612C642.51 162.405 642.35 162.093 642.236 161.678C642.123 161.243 642.066 160.611 642.066 159.78C642.066 159.233 642.085 158.799 642.123 158.478C642.161 158.138 642.217 157.873 642.293 157.685C642.368 157.477 642.463 157.345 642.576 157.288C642.689 157.213 642.831 157.175 643.001 157.175C643.209 157.175 643.511 157.298 643.907 157.543C644.323 157.77 644.832 158.024 645.437 158.308C646.041 158.591 646.739 158.855 647.532 159.101C648.344 159.346 649.26 159.469 650.279 159.469C650.921 159.469 651.488 159.403 651.979 159.271C652.488 159.138 652.923 158.95 653.281 158.704C653.659 158.459 653.942 158.147 654.131 157.77C654.32 157.392 654.414 156.958 654.414 156.467C654.414 155.9 654.235 155.419 653.876 155.022C653.536 154.607 653.074 154.248 652.488 153.946C651.922 153.644 651.271 153.361 650.534 153.097C649.817 152.832 649.071 152.54 648.297 152.219C647.542 151.898 646.796 151.53 646.06 151.114C645.342 150.699 644.691 150.189 644.105 149.585C643.539 148.981 643.076 148.254 642.718 147.404C642.378 146.555 642.208 145.535 642.208 144.346C642.208 143.137 642.444 142.033 642.916 141.032C643.388 140.013 644.068 139.144 644.955 138.427C645.842 137.709 646.919 137.152 648.184 136.756C649.467 136.359 650.902 136.161 652.488 136.161C653.281 136.161 654.046 136.218 654.782 136.331C655.537 136.444 656.217 136.586 656.821 136.756C657.425 136.926 657.935 137.115 658.351 137.322C658.766 137.511 659.059 137.681 659.229 137.832C659.417 137.964 659.549 138.106 659.625 138.257C659.701 138.389 659.757 138.559 659.795 138.767C659.833 138.955 659.861 139.201 659.88 139.503C659.918 139.786 659.937 140.145 659.937 140.579C659.937 141.089 659.918 141.504 659.88 141.825C659.861 142.146 659.814 142.401 659.738 142.59C659.682 142.779 659.597 142.911 659.483 142.986C659.37 143.043 659.238 143.071 659.087 143.071C658.917 143.071 658.653 142.977 658.294 142.788C657.935 142.58 657.482 142.363 656.935 142.137C656.406 141.91 655.783 141.702 655.065 141.514C654.367 141.306 653.564 141.202 652.658 141.202C652.016 141.202 651.459 141.268 650.987 141.4C650.515 141.533 650.128 141.721 649.826 141.967C649.524 142.212 649.298 142.505 649.146 142.845C648.995 143.166 648.92 143.515 648.92 143.893C648.92 144.478 649.099 144.969 649.458 145.365C649.817 145.762 650.289 146.111 650.874 146.413C651.459 146.715 652.12 146.998 652.856 147.263C653.612 147.527 654.367 147.82 655.122 148.141C655.896 148.443 656.651 148.801 657.388 149.217C658.143 149.632 658.813 150.142 659.398 150.746C659.984 151.35 660.456 152.077 660.814 152.927C661.173 153.757 661.353 154.749 661.353 155.9Z" fill="#2E993E"/>
<path d="M685.353 155.9C685.353 157.335 685.079 158.6 684.531 159.695C684.003 160.79 683.247 161.706 682.266 162.442C681.284 163.179 680.123 163.726 678.782 164.085C677.442 164.463 675.988 164.651 674.421 164.651C673.477 164.651 672.571 164.576 671.702 164.425C670.853 164.293 670.088 164.123 669.408 163.915C668.729 163.688 668.162 163.462 667.709 163.235C667.256 163.009 666.925 162.801 666.718 162.612C666.51 162.405 666.35 162.093 666.236 161.678C666.123 161.243 666.066 160.611 666.066 159.78C666.066 159.233 666.085 158.799 666.123 158.478C666.161 158.138 666.217 157.873 666.293 157.685C666.368 157.477 666.463 157.345 666.576 157.288C666.689 157.213 666.831 157.175 667.001 157.175C667.209 157.175 667.511 157.298 667.907 157.543C668.323 157.77 668.832 158.024 669.437 158.308C670.041 158.591 670.739 158.855 671.532 159.101C672.344 159.346 673.26 159.469 674.279 159.469C674.921 159.469 675.488 159.403 675.979 159.271C676.488 159.138 676.923 158.95 677.281 158.704C677.659 158.459 677.942 158.147 678.131 157.77C678.32 157.392 678.414 156.958 678.414 156.467C678.414 155.9 678.235 155.419 677.876 155.022C677.536 154.607 677.074 154.248 676.488 153.946C675.922 153.644 675.271 153.361 674.534 153.097C673.817 152.832 673.071 152.54 672.297 152.219C671.542 151.898 670.796 151.53 670.06 151.114C669.342 150.699 668.691 150.189 668.105 149.585C667.539 148.981 667.076 148.254 666.718 147.404C666.378 146.555 666.208 145.535 666.208 144.346C666.208 143.137 666.444 142.033 666.916 141.032C667.388 140.013 668.068 139.144 668.955 138.427C669.842 137.709 670.919 137.152 672.184 136.756C673.467 136.359 674.902 136.161 676.488 136.161C677.281 136.161 678.046 136.218 678.782 136.331C679.537 136.444 680.217 136.586 680.821 136.756C681.425 136.926 681.935 137.115 682.351 137.322C682.766 137.511 683.059 137.681 683.229 137.832C683.417 137.964 683.549 138.106 683.625 138.257C683.701 138.389 683.757 138.559 683.795 138.767C683.833 138.955 683.861 139.201 683.88 139.503C683.918 139.786 683.937 140.145 683.937 140.579C683.937 141.089 683.918 141.504 683.88 141.825C683.861 142.146 683.814 142.401 683.738 142.59C683.682 142.779 683.597 142.911 683.483 142.986C683.37 143.043 683.238 143.071 683.087 143.071C682.917 143.071 682.653 142.977 682.294 142.788C681.935 142.58 681.482 142.363 680.935 142.137C680.406 141.91 679.783 141.702 679.065 141.514C678.367 141.306 677.564 141.202 676.658 141.202C676.016 141.202 675.459 141.268 674.987 141.4C674.515 141.533 674.128 141.721 673.826 141.967C673.524 142.212 673.298 142.505 673.146 142.845C672.995 143.166 672.92 143.515 672.92 143.893C672.92 144.478 673.099 144.969 673.458 145.365C673.817 145.762 674.289 146.111 674.874 146.413C675.459 146.715 676.12 146.998 676.856 147.263C677.612 147.527 678.367 147.82 679.122 148.141C679.896 148.443 680.651 148.801 681.388 149.217C682.143 149.632 682.813 150.142 683.398 150.746C683.984 151.35 684.456 152.077 684.814 152.927C685.173 153.757 685.353 154.749 685.353 155.9Z" fill="#2E993E"/>
<path d="M726.714 153.012C726.714 154.938 726.355 156.627 725.638 158.081C724.92 159.535 723.948 160.753 722.721 161.734C721.493 162.697 720.059 163.424 718.416 163.915C716.773 164.406 715.018 164.651 713.148 164.651C711.883 164.651 710.703 164.548 709.608 164.34C708.532 164.132 707.579 163.887 706.748 163.604C705.917 163.301 705.219 162.99 704.652 162.669C704.105 162.348 703.708 162.065 703.463 161.819C703.217 161.574 703.038 161.225 702.925 160.771C702.83 160.299 702.783 159.629 702.783 158.761C702.783 158.175 702.802 157.685 702.84 157.288C702.878 156.892 702.934 156.571 703.01 156.325C703.104 156.08 703.217 155.91 703.35 155.815C703.501 155.702 703.671 155.646 703.859 155.646C704.124 155.646 704.492 155.806 704.964 156.127C705.455 156.429 706.078 156.769 706.833 157.146C707.588 157.524 708.485 157.873 709.523 158.194C710.581 158.496 711.799 158.647 713.177 158.647C714.083 158.647 714.895 158.544 715.612 158.336C716.33 158.109 716.934 157.798 717.425 157.401C717.935 157.005 718.322 156.514 718.586 155.929C718.85 155.343 718.982 154.692 718.982 153.975C718.982 153.144 718.756 152.436 718.303 151.851C717.85 151.246 717.255 150.718 716.519 150.265C715.801 149.793 714.98 149.358 714.055 148.962C713.13 148.547 712.176 148.112 711.194 147.659C710.213 147.206 709.259 146.696 708.334 146.13C707.409 145.545 706.578 144.855 705.842 144.062C705.124 143.251 704.539 142.297 704.086 141.202C703.633 140.107 703.406 138.795 703.406 137.266C703.406 135.51 703.727 133.971 704.369 132.649C705.03 131.309 705.908 130.204 707.003 129.336C708.117 128.449 709.42 127.788 710.911 127.354C712.422 126.919 714.017 126.702 715.697 126.702C716.566 126.702 717.434 126.768 718.303 126.9C719.171 127.033 719.983 127.212 720.738 127.438C721.493 127.665 722.164 127.92 722.749 128.203C723.334 128.486 723.721 128.722 723.91 128.911C724.099 129.1 724.222 129.26 724.278 129.393C724.354 129.525 724.41 129.704 724.448 129.931C724.505 130.138 724.543 130.412 724.562 130.752C724.58 131.073 724.59 131.479 724.59 131.97C724.59 132.517 724.571 132.98 724.533 133.357C724.514 133.735 724.467 134.047 724.392 134.292C724.335 134.537 724.241 134.717 724.108 134.83C723.995 134.943 723.835 135 723.627 135C723.419 135 723.089 134.868 722.636 134.604C722.183 134.339 721.626 134.056 720.965 133.754C720.304 133.433 719.539 133.15 718.671 132.904C717.802 132.64 716.849 132.508 715.811 132.508C714.999 132.508 714.291 132.612 713.687 132.819C713.082 133.008 712.573 133.282 712.157 133.641C711.761 133.98 711.459 134.396 711.251 134.887C711.062 135.378 710.968 135.897 710.968 136.444C710.968 137.256 711.185 137.964 711.619 138.568C712.072 139.154 712.667 139.682 713.403 140.154C714.159 140.607 715.008 141.042 715.952 141.457C716.896 141.854 717.859 142.278 718.841 142.731C719.823 143.185 720.785 143.704 721.729 144.289C722.674 144.855 723.514 145.545 724.25 146.356C724.986 147.149 725.581 148.093 726.034 149.188C726.487 150.265 726.714 151.539 726.714 153.012Z" fill="#2E993E"/>
<path d="M758.113 150.151C758.113 152.304 757.83 154.267 757.264 156.042C756.697 157.817 755.838 159.346 754.687 160.63C753.535 161.914 752.09 162.905 750.354 163.604C748.617 164.302 746.587 164.651 744.265 164.651C742.018 164.651 740.064 164.34 738.402 163.717C736.741 163.094 735.363 162.188 734.268 160.998C733.173 159.809 732.361 158.345 731.832 156.608C731.303 154.871 731.039 152.889 731.039 150.661C731.039 148.509 731.322 146.545 731.889 144.771C732.474 142.977 733.342 141.448 734.494 140.183C735.646 138.899 737.081 137.908 738.799 137.209C740.536 136.51 742.565 136.161 744.888 136.161C747.153 136.161 749.117 136.473 750.778 137.096C752.44 137.7 753.809 138.597 754.885 139.786C755.98 140.976 756.792 142.439 757.32 144.176C757.849 145.913 758.113 147.905 758.113 150.151ZM750.778 150.435C750.778 149.188 750.674 148.046 750.467 147.008C750.278 145.951 749.948 145.035 749.476 144.261C749.004 143.487 748.371 142.882 747.578 142.448C746.804 142.014 745.822 141.797 744.633 141.797C743.576 141.797 742.65 141.995 741.857 142.392C741.064 142.769 740.413 143.336 739.903 144.091C739.394 144.827 739.007 145.724 738.742 146.781C738.497 147.82 738.374 149.009 738.374 150.35C738.374 151.596 738.478 152.747 738.686 153.805C738.893 154.843 739.224 155.749 739.677 156.523C740.149 157.298 740.781 157.902 741.574 158.336C742.367 158.751 743.349 158.959 744.52 158.959C745.596 158.959 746.53 158.77 747.323 158.393C748.116 157.996 748.768 157.43 749.277 156.693C749.787 155.957 750.165 155.07 750.41 154.031C750.656 152.974 750.778 151.775 750.778 150.435Z" fill="#2E993E"/>
<path d="M771.703 163.037C771.703 163.226 771.646 163.396 771.533 163.547C771.42 163.679 771.222 163.792 770.938 163.887C770.674 163.981 770.315 164.047 769.862 164.085C769.409 164.142 768.833 164.17 768.135 164.17C767.436 164.17 766.86 164.142 766.407 164.085C765.954 164.047 765.586 163.981 765.303 163.887C765.038 163.792 764.85 163.679 764.736 163.547C764.623 163.396 764.566 163.226 764.566 163.037V125.796C764.566 125.607 764.623 125.437 764.736 125.286C764.85 125.135 765.038 125.012 765.303 124.918C765.586 124.805 765.954 124.72 766.407 124.663C766.86 124.606 767.436 124.578 768.135 124.578C768.833 124.578 769.409 124.606 769.862 124.663C770.315 124.72 770.674 124.805 770.938 124.918C771.222 125.012 771.42 125.135 771.533 125.286C771.646 125.437 771.703 125.607 771.703 125.796V163.037Z" fill="#2E993E"/>
<path d="M803.526 163.037C803.526 163.226 803.479 163.396 803.385 163.547C803.29 163.679 803.12 163.792 802.875 163.887C802.648 163.981 802.337 164.047 801.94 164.085C801.563 164.142 801.081 164.17 800.496 164.17C799.873 164.17 799.363 164.142 798.967 164.085C798.589 164.047 798.287 163.981 798.061 163.887C797.834 163.792 797.674 163.679 797.579 163.547C797.485 163.396 797.438 163.226 797.438 163.037V160.12C796.04 161.631 794.615 162.763 793.161 163.519C791.726 164.274 790.235 164.651 788.687 164.651C786.95 164.651 785.486 164.368 784.297 163.802C783.126 163.235 782.173 162.461 781.437 161.479C780.719 160.498 780.2 159.365 779.879 158.081C779.577 156.778 779.426 155.164 779.426 153.238V137.775C779.426 137.587 779.473 137.426 779.567 137.294C779.681 137.143 779.869 137.02 780.134 136.926C780.417 136.831 780.785 136.765 781.238 136.728C781.71 136.671 782.286 136.643 782.966 136.643C783.664 136.643 784.24 136.671 784.693 136.728C785.146 136.765 785.505 136.831 785.77 136.926C786.053 137.02 786.251 137.143 786.364 137.294C786.478 137.426 786.534 137.587 786.534 137.775V152.049C786.534 153.37 786.619 154.381 786.789 155.079C786.959 155.778 787.214 156.382 787.554 156.892C787.912 157.382 788.356 157.77 788.885 158.053C789.432 158.317 790.065 158.449 790.782 158.449C791.688 158.449 792.595 158.119 793.501 157.458C794.426 156.797 795.408 155.834 796.446 154.569V137.775C796.446 137.587 796.493 137.426 796.588 137.294C796.701 137.143 796.89 137.02 797.154 136.926C797.438 136.831 797.806 136.765 798.259 136.728C798.712 136.671 799.288 136.643 799.986 136.643C800.685 136.643 801.261 136.671 801.714 136.728C802.167 136.765 802.526 136.831 802.79 136.926C803.054 137.02 803.243 137.143 803.356 137.294C803.47 137.426 803.526 137.587 803.526 137.775V163.037Z" fill="#2E993E"/>
<path d="M826.521 160.545C826.521 161.376 826.464 162.018 826.351 162.471C826.256 162.905 826.124 163.216 825.954 163.405C825.784 163.575 825.529 163.736 825.189 163.887C824.868 164.019 824.481 164.132 824.028 164.227C823.594 164.34 823.113 164.425 822.584 164.481C822.074 164.538 821.555 164.566 821.026 164.566C819.61 164.566 818.383 164.387 817.345 164.028C816.306 163.67 815.447 163.122 814.768 162.386C814.088 161.631 813.588 160.687 813.267 159.554C812.946 158.421 812.785 157.08 812.785 155.532V142.59H809.755C809.396 142.59 809.122 142.373 808.934 141.938C808.745 141.485 808.65 140.74 808.65 139.701C808.65 139.154 808.669 138.691 808.707 138.313C808.764 137.936 808.839 137.643 808.934 137.436C809.028 137.209 809.141 137.049 809.273 136.954C809.424 136.86 809.594 136.812 809.783 136.812H812.785V131.177C812.785 130.988 812.832 130.818 812.927 130.667C813.04 130.516 813.229 130.393 813.493 130.299C813.776 130.186 814.145 130.11 814.598 130.072C815.07 130.016 815.646 129.987 816.325 129.987C817.024 129.987 817.6 130.016 818.053 130.072C818.525 130.11 818.893 130.186 819.157 130.299C819.422 130.393 819.61 130.516 819.724 130.667C819.837 130.818 819.894 130.988 819.894 131.177V136.812H825.388C825.576 136.812 825.737 136.86 825.869 136.954C826.02 137.049 826.143 137.209 826.237 137.436C826.332 137.643 826.398 137.936 826.436 138.313C826.492 138.691 826.521 139.154 826.521 139.701C826.521 140.74 826.426 141.485 826.237 141.938C826.049 142.373 825.775 142.59 825.416 142.59H819.894V154.456C819.894 155.834 820.111 156.873 820.545 157.571C820.979 158.251 821.753 158.591 822.867 158.591C823.245 158.591 823.585 158.562 823.887 158.506C824.189 158.43 824.453 158.355 824.68 158.279C824.925 158.185 825.123 158.109 825.274 158.053C825.444 157.977 825.595 157.939 825.728 157.939C825.841 157.939 825.945 157.977 826.039 158.053C826.152 158.109 826.237 158.242 826.294 158.449C826.351 158.638 826.398 158.902 826.436 159.242C826.492 159.582 826.521 160.016 826.521 160.545Z" fill="#2E993E"/>
<path d="M834.999 137.5C830.999 137 818.999 136 818.999 138.5C817.499 140.333 820.099 142.5 822.499 142.5C824.899 142.5 830.499 142.833 832.999 143C833.166 141.5 836.431 137.679 834.999 137.5Z" fill="#675D5C"/>
<path d="M838.704 163.037C838.704 163.226 838.647 163.396 838.534 163.547C838.421 163.679 838.223 163.792 837.939 163.887C837.675 163.981 837.316 164.047 836.863 164.085C836.41 164.142 835.834 164.17 835.136 164.17C834.437 164.17 833.861 164.142 833.408 164.085C832.955 164.047 832.587 163.981 832.304 163.887C832.039 163.792 831.851 163.679 831.737 163.547C831.624 163.396 831.567 163.226 831.567 163.037V137.832C831.567 137.643 831.624 137.483 831.737 137.351C831.851 137.2 832.039 137.077 832.304 136.982C832.587 136.869 832.955 136.784 833.408 136.728C833.861 136.671 834.437 136.643 835.136 136.643C835.834 136.643 836.41 136.671 836.863 136.728C837.316 136.784 837.675 136.869 837.939 136.982C838.223 137.077 838.421 137.2 838.534 137.351C838.647 137.483 838.704 137.643 838.704 137.832V163.037ZM839.242 129.223C839.242 130.658 838.95 131.649 838.364 132.196C837.779 132.744 836.693 133.018 835.107 133.018C833.503 133.018 832.417 132.753 831.851 132.225C831.303 131.696 831.029 130.743 831.029 129.364C831.029 127.929 831.312 126.938 831.879 126.391C832.464 125.824 833.559 125.541 835.164 125.541C836.75 125.541 837.826 125.815 838.393 126.362C838.959 126.891 839.242 127.844 839.242 129.223Z" fill="#2E993E"/>
<path d="M872.113 150.151C872.113 152.304 871.83 154.267 871.264 156.042C870.697 157.817 869.838 159.346 868.687 160.63C867.535 161.914 866.09 162.905 864.354 163.604C862.617 164.302 860.587 164.651 858.265 164.651C856.018 164.651 854.064 164.34 852.402 163.717C850.741 163.094 849.363 162.188 848.268 160.998C847.173 159.809 846.361 158.345 845.832 156.608C845.303 154.871 845.039 152.889 845.039 150.661C845.039 148.509 845.322 146.545 845.889 144.771C846.474 142.977 847.342 141.448 848.494 140.183C849.646 138.899 851.081 137.908 852.799 137.209C854.536 136.51 856.565 136.161 858.888 136.161C861.153 136.161 863.117 136.473 864.778 137.096C866.44 137.7 867.809 138.597 868.885 139.786C869.98 140.976 870.792 142.439 871.32 144.176C871.849 145.913 872.113 147.905 872.113 150.151ZM864.778 150.435C864.778 149.188 864.674 148.046 864.467 147.008C864.278 145.951 863.948 145.035 863.476 144.261C863.004 143.487 862.371 142.882 861.578 142.448C860.804 142.014 859.822 141.797 858.633 141.797C857.576 141.797 856.65 141.995 855.857 142.392C855.064 142.769 854.413 143.336 853.903 144.091C853.394 144.827 853.007 145.724 852.742 146.781C852.497 147.82 852.374 149.009 852.374 150.35C852.374 151.596 852.478 152.747 852.686 153.805C852.893 154.843 853.224 155.749 853.677 156.523C854.149 157.298 854.781 157.902 855.574 158.336C856.367 158.751 857.349 158.959 858.52 158.959C859.596 158.959 860.53 158.77 861.323 158.393C862.116 157.996 862.768 157.43 863.277 156.693C863.787 155.957 864.165 155.07 864.41 154.031C864.656 152.974 864.778 151.775 864.778 150.435Z" fill="#2E993E"/>
<path d="M902.695 163.037C902.695 163.226 902.639 163.396 902.525 163.547C902.412 163.679 902.223 163.792 901.959 163.887C901.695 163.981 901.326 164.047 900.854 164.085C900.401 164.142 899.835 164.17 899.155 164.17C898.457 164.17 897.871 164.142 897.399 164.085C896.946 164.047 896.588 163.981 896.323 163.887C896.059 163.792 895.87 163.679 895.757 163.547C895.644 163.396 895.587 163.226 895.587 163.037V148.622C895.587 147.395 895.493 146.432 895.304 145.733C895.134 145.035 894.879 144.44 894.539 143.949C894.199 143.439 893.756 143.052 893.208 142.788C892.679 142.505 892.056 142.363 891.339 142.363C890.433 142.363 889.517 142.694 888.592 143.354C887.667 144.015 886.704 144.978 885.703 146.243V163.037C885.703 163.226 885.646 163.396 885.533 163.547C885.42 163.679 885.222 163.792 884.938 163.887C884.674 163.981 884.315 164.047 883.862 164.085C883.409 164.142 882.833 164.17 882.135 164.17C881.436 164.17 880.86 164.142 880.407 164.085C879.954 164.047 879.586 163.981 879.303 163.887C879.038 163.792 878.85 163.679 878.736 163.547C878.623 163.396 878.566 163.226 878.566 163.037V137.775C878.566 137.587 878.614 137.426 878.708 137.294C878.802 137.143 878.972 137.02 879.218 136.926C879.463 136.831 879.775 136.765 880.152 136.728C880.549 136.671 881.04 136.643 881.625 136.643C882.229 136.643 882.729 136.671 883.126 136.728C883.522 136.765 883.825 136.831 884.032 136.926C884.259 137.02 884.419 137.143 884.514 137.294C884.608 137.426 884.655 137.587 884.655 137.775V140.692C886.052 139.182 887.468 138.049 888.903 137.294C890.357 136.539 891.868 136.161 893.435 136.161C895.153 136.161 896.597 136.444 897.768 137.011C898.957 137.577 899.91 138.351 900.628 139.333C901.364 140.296 901.893 141.429 902.214 142.731C902.535 144.034 902.695 145.601 902.695 147.433V163.037Z" fill="#2E993E"/>
<path d="M928.353 155.9C928.353 157.335 928.079 158.6 927.531 159.695C927.003 160.79 926.247 161.706 925.266 162.442C924.284 163.179 923.123 163.726 921.782 164.085C920.442 164.463 918.988 164.651 917.421 164.651C916.477 164.651 915.571 164.576 914.702 164.425C913.853 164.293 913.088 164.123 912.408 163.915C911.729 163.688 911.162 163.462 910.709 163.235C910.256 163.009 909.925 162.801 909.718 162.612C909.51 162.405 909.35 162.093 909.236 161.678C909.123 161.243 909.066 160.611 909.066 159.78C909.066 159.233 909.085 158.799 909.123 158.478C909.161 158.138 909.217 157.873 909.293 157.685C909.368 157.477 909.463 157.345 909.576 157.288C909.689 157.213 909.831 157.175 910.001 157.175C910.209 157.175 910.511 157.298 910.907 157.543C911.323 157.77 911.832 158.024 912.437 158.308C913.041 158.591 913.739 158.855 914.532 159.101C915.344 159.346 916.26 159.469 917.279 159.469C917.921 159.469 918.488 159.403 918.979 159.271C919.488 159.138 919.923 158.95 920.281 158.704C920.659 158.459 920.942 158.147 921.131 157.77C921.32 157.392 921.414 156.958 921.414 156.467C921.414 155.9 921.235 155.419 920.876 155.022C920.536 154.607 920.074 154.248 919.488 153.946C918.922 153.644 918.271 153.361 917.534 153.097C916.817 152.832 916.071 152.54 915.297 152.219C914.542 151.898 913.796 151.53 913.06 151.114C912.342 150.699 911.691 150.189 911.105 149.585C910.539 148.981 910.076 148.254 909.718 147.404C909.378 146.555 909.208 145.535 909.208 144.346C909.208 143.137 909.444 142.033 909.916 141.032C910.388 140.013 911.068 139.144 911.955 138.427C912.842 137.709 913.919 137.152 915.184 136.756C916.467 136.359 917.902 136.161 919.488 136.161C920.281 136.161 921.046 136.218 921.782 136.331C922.537 136.444 923.217 136.586 923.821 136.756C924.425 136.926 924.935 137.115 925.351 137.322C925.766 137.511 926.059 137.681 926.229 137.832C926.417 137.964 926.549 138.106 926.625 138.257C926.701 138.389 926.757 138.559 926.795 138.767C926.833 138.955 926.861 139.201 926.88 139.503C926.918 139.786 926.937 140.145 926.937 140.579C926.937 141.089 926.918 141.504 926.88 141.825C926.861 142.146 926.814 142.401 926.738 142.59C926.682 142.779 926.597 142.911 926.483 142.986C926.37 143.043 926.238 143.071 926.087 143.071C925.917 143.071 925.653 142.977 925.294 142.788C924.935 142.58 924.482 142.363 923.935 142.137C923.406 141.91 922.783 141.702 922.065 141.514C921.367 141.306 920.564 141.202 919.658 141.202C919.016 141.202 918.459 141.268 917.987 141.4C917.515 141.533 917.128 141.721 916.826 141.967C916.524 142.212 916.298 142.505 916.146 142.845C915.995 143.166 915.92 143.515 915.92 143.893C915.92 144.478 916.099 144.969 916.458 145.365C916.817 145.762 917.289 146.111 917.874 146.413C918.459 146.715 919.12 146.998 919.856 147.263C920.612 147.527 921.367 147.82 922.122 148.141C922.896 148.443 923.651 148.801 924.388 149.217C925.143 149.632 925.813 150.142 926.398 150.746C926.984 151.35 927.456 152.077 927.814 152.927C928.173 153.757 928.353 154.749 928.353 155.9Z" fill="#2E993E"/>
<path d="M264.936 5.30078H306.994C310.752 5.30078 314.413 5.51758 317.979 5.95117C321.592 6.33659 324.988 7.03516 328.168 8.04688C331.396 9.05859 334.335 10.3835 336.984 12.0215C339.682 13.6595 341.995 15.7311 343.922 18.2363C345.849 20.6934 347.342 23.6081 348.402 26.9805C349.51 30.3529 350.064 34.2552 350.064 38.6875C350.064 50.3464 346.523 59.1146 339.441 64.9922C332.408 70.8216 321.905 73.7363 307.934 73.7363H285.387V115H264.936V5.30078ZM285.387 54.9473H308.295C312.053 54.9473 315.257 54.61 317.906 53.9355C320.556 53.2129 322.7 52.1771 324.338 50.8281C326.024 49.4792 327.253 47.8171 328.023 45.8418C328.794 43.8665 329.18 41.5781 329.18 38.9766C329.18 35.8451 328.602 33.3158 327.445 31.3887C326.289 29.4616 324.723 27.9681 322.748 26.9082C320.821 25.8001 318.557 25.0775 315.955 24.7402C313.402 24.3548 310.704 24.1621 307.861 24.1621H285.387V54.9473Z" fill="white"/>
<path d="M387.426 115H367.914V7.75781H387.426V115Z" fill="white"/>
<path d="M455.523 79.6621H449.814C433.193 79.6621 424.883 83.709 424.883 91.8027C424.883 94.5007 425.967 96.5723 428.135 98.0176C430.351 99.4147 433.266 100.113 436.879 100.113C438.71 100.113 440.516 99.9447 442.299 99.6074C444.081 99.222 445.792 98.6921 447.43 98.0176C449.068 97.2949 450.561 96.4036 451.91 95.3438C453.307 94.2839 454.512 93.0553 455.523 91.6582V79.6621ZM455.523 110.881C449.068 114.783 441.6 116.734 433.121 116.734C429.122 116.734 425.413 116.156 421.992 115C418.572 113.844 415.609 112.206 413.104 110.086C410.598 107.918 408.623 105.34 407.178 102.354C405.732 99.3665 405.01 96.0664 405.01 92.4531C405.01 73.2786 420.812 63.6914 452.416 63.6914H455.523C455.475 61.5234 455.307 59.6204 455.018 57.9824C454.729 56.3444 454.078 54.9714 453.066 53.8633C452.103 52.707 450.682 51.8398 448.803 51.2617C446.924 50.6836 444.395 50.3945 441.215 50.3945C431.82 50.3945 426.93 54.5618 426.545 62.8965H406.816C407.924 43.4811 419.656 33.7734 442.01 33.7734C447.117 33.7734 451.693 34.2311 455.74 35.1465C459.835 36.0618 463.304 37.6758 466.146 39.9883C468.989 42.3008 471.181 45.4564 472.723 49.4551C474.264 53.4538 475.035 58.5124 475.035 64.6309V115H455.523V110.881Z" fill="white"/>
<path d="M517.857 40.3496C523.494 35.9655 529.637 33.7734 536.285 33.7734C555.026 33.7734 564.396 43.8665 564.396 64.0527V115H544.668V64.6309C544.668 59.765 543.873 56.2721 542.283 54.1523C540.693 52.0326 538.068 50.9727 534.406 50.9727C529.107 50.9727 523.59 54.1764 517.857 60.584V115H498.273V35.6523H517.857V40.3496Z" fill="white"/>
<path d="M609.375 52.1289V115H589.791V52.1289H579.023V35.6523H589.791V32.2559C589.791 14.623 597.692 5.80664 613.494 5.80664C615.807 5.80664 618.047 5.97526 620.215 6.3125C622.383 6.64974 624.454 7.08333 626.43 7.61328V25.0293C623.732 24.5475 621.54 24.2344 619.854 24.0898C618.167 23.8971 616.698 23.8008 615.445 23.8008C613.277 23.8008 611.712 24.4512 610.748 25.752C609.833 27.0046 609.375 29.2207 609.375 32.4004V35.6523H623.105V52.1289H609.375Z" fill="white"/>
<path d="M652.773 115H633.262V35.6523H652.773V115ZM652.773 28.209H633.262V7.75781H652.773V28.209Z" fill="white"/>
<path d="M717.355 55.0918C715.139 54.4173 713.092 53.8874 711.213 53.502C709.382 53.1165 707.696 52.9238 706.154 52.9238C703.553 52.9238 701.144 53.5983 698.928 54.9473C696.712 56.2962 694.52 58.3919 692.352 61.2344V115H672.84V35.6523H692.352V40.2051C697.169 35.9173 702.445 33.7734 708.178 33.7734C708.997 33.7734 710.201 33.8939 711.791 34.1348C713.381 34.3275 715.236 34.5924 717.355 34.9297V55.0918Z" fill="white"/>
<path d="M835.576 115H815.775V64.6309C815.775 59.6686 815.173 56.1517 813.969 54.0801C812.764 52.0085 810.717 50.9727 807.826 50.9727C802.912 50.9727 797.781 54.1523 792.434 60.5117V115H772.994V64.6309C772.994 59.6686 772.368 56.1517 771.115 54.0801C769.911 52.0085 767.863 50.9727 764.973 50.9727C760.155 50.9727 755.048 54.1523 749.652 60.5117V115H730.141V35.6523H749.652V40.2051C752.398 37.9889 755.169 36.375 757.963 35.3633C760.805 34.3034 763.816 33.7734 766.996 33.7734C772.103 33.7734 776.415 34.6406 779.932 36.375C783.449 38.1094 786.243 40.7832 788.314 44.3965C790.531 42.084 792.554 40.2292 794.385 38.832C796.264 37.4349 798.046 36.375 799.732 35.6523C801.419 34.8815 803.057 34.3757 804.646 34.1348C806.236 33.8939 807.898 33.7734 809.633 33.7734C826.928 33.7734 835.576 43.8665 835.576 64.0527V115Z" fill="white"/>
<path d="M907.523 79.6621H901.814C885.193 79.6621 876.883 83.709 876.883 91.8027C876.883 94.5007 877.967 96.5723 880.135 98.0176C882.351 99.4147 885.266 100.113 888.879 100.113C890.71 100.113 892.516 99.9447 894.299 99.6074C896.081 99.222 897.792 98.6921 899.43 98.0176C901.068 97.2949 902.561 96.4036 903.91 95.3438C905.307 94.2839 906.512 93.0553 907.523 91.6582V79.6621ZM907.523 110.881C901.068 114.783 893.6 116.734 885.121 116.734C881.122 116.734 877.413 116.156 873.992 115C870.572 113.844 867.609 112.206 865.104 110.086C862.598 107.918 860.623 105.34 859.178 102.354C857.732 99.3665 857.01 96.0664 857.01 92.4531C857.01 73.2786 872.812 63.6914 904.416 63.6914H907.523C907.475 61.5234 907.307 59.6204 907.018 57.9824C906.729 56.3444 906.078 54.9714 905.066 53.8633C904.103 52.707 902.682 51.8398 900.803 51.2617C898.924 50.6836 896.395 50.3945 893.215 50.3945C883.82 50.3945 878.93 54.5618 878.545 62.8965H858.816C859.924 43.4811 871.656 33.7734 894.01 33.7734C899.117 33.7734 903.693 34.2311 907.74 35.1465C911.835 36.0618 915.304 37.6758 918.146 39.9883C920.989 42.3008 923.181 45.4564 924.723 49.4551C926.264 53.4538 927.035 58.5124 927.035 64.6309V115H907.523V110.881Z" fill="white"/>
</svg>
